<svg xmlns="http://www.w3.org/2000/svg" xmlns:xlink="http://www.w3.org/1999/xlink"><symbol viewBox="0 0 16 8" id="arrow_left" xmlns="http://www.w3.org/2000/svg"><path d="M0 4l4.644 4V4.733H16V3.258H4.644L4.634 0z" fill-rule="evenodd"/></symbol><symbol viewBox="0 0 16 8" id="arrow_right" xmlns="http://www.w3.org/2000/svg"><path d="M16 4l-4.644 4V4.733H0V3.258h11.356L11.366 0z" fill-rule="evenodd"/></symbol><symbol viewBox="0 0 14 9" id="caret_down" xmlns="http://www.w3.org/2000/svg"><path d="M13.279.208L7.071 8.142.863.208z"/></symbol><symbol viewBox="0 0 20 20" id="chevron_left" xmlns="http://www.w3.org/2000/svg"><path d="M12.141 13.418c.268.271.268.709 0 .978s-.701.272-.969 0l-3.83-3.908a.697.697 0 010-.979l3.83-3.908c.267-.27.701-.27.969 0s.268.709 0 .978L9 10l3.141 3.418z"/></symbol><symbol viewBox="0 0 20 20" id="chevron_right" xmlns="http://www.w3.org/2000/svg"><path d="M11 10L7.859 6.58a.695.695 0 010-.978.68.68 0 01.969 0l3.83 3.908a.697.697 0 010 .979l-3.83 3.908c-.267.272-.701.27-.969 0s-.268-.707 0-.978L11 10z"/></symbol><symbol viewBox="0 0 16 16" id="clock" xmlns="http://www.w3.org/2000/svg"><path d="M7.931 0c4.374 0 7.932 3.558 7.932 7.931 0 4.374-3.558 7.932-7.932 7.932C3.558 15.863 0 12.305 0 7.93 0 3.558 3.558 0 7.931 0zm0 14.175a6.25 6.25 0 006.244-6.244 6.25 6.25 0 00-6.244-6.243A6.25 6.25 0 001.688 7.93a6.25 6.25 0 006.243 6.244zm4.134-6.488a.653.653 0 010 1.306H7.848a.653.653 0 01-.654-.653V3.4a.653.653 0 011.307 0v4.287h3.564z"/></symbol><symbol viewBox="0 0 20 20" id="close" xmlns="http://www.w3.org/2000/svg"><path d="M10 7.525L17.248.277l2.475 2.475L12.475 10l7.248 7.248-2.475 2.475L10 12.475l-7.248 7.248-2.475-2.475L7.525 10 .277 2.752 2.752.277 10 7.525z"/></symbol><symbol viewBox="0 0 22 18" id="email" xmlns="http://www.w3.org/2000/svg"><path d="M22 2.125l-11 8.25-11-8.25A1.37 1.37 0 011.375.75h19.25A1.37 1.37 0 0122 2.125zM0 4.595l11 8.25 11-8.25v11.28a1.37 1.37 0 01-1.375 1.375H1.375A1.37 1.37 0 010 15.875V4.595z" fill-rule="evenodd"/></symbol><symbol viewBox="0 0 18 18" id="facebook" xmlns="http://www.w3.org/2000/svg"><path d="M0 0v17.99h9.58v-6.95H7.238V8.204H9.58V5.82a3.137 3.137 0 013.138-3.137h2.448v2.551h-1.752a.997.997 0 00-.997.997v1.972h2.705l-.374 2.836h-2.33v6.95h5.571V0H0z"/></symbol><symbol viewBox="0 0 11 11" id="fax" xmlns="http://www.w3.org/2000/svg"><path d="M11 10.313a.685.685 0 01-.688.687H.688A.685.685 0 010 10.312v-5.5c0-.38.306-.687.688-.687h1.144v2.293h7.336V4.125h1.145c.38 0 .687.306.687.688v5.5zM9.625 8.937a.685.685 0 00-.688-.687.685.685 0 00-.687.688c0 .38.306.687.688.687a.685.685 0 00.687-.688zM2.75 5.5V.231A.23.23 0 012.981 0h5.038a.23.23 0 01.231.231V5.5h-5.5z"/></symbol><symbol viewBox="0 0 22 10" id="flickr" xmlns="http://www.w3.org/2000/svg"><path d="M22 5.001C22 7.761 19.793 10 17.07 10s-4.93-2.238-4.93-4.999C12.14 2.239 14.346 0 17.07 0S22 2.239 22 5.001zM4.93 0C2.207 0 0 2.239 0 5.001 0 7.761 2.207 10 4.93 10s4.93-2.238 4.93-4.999C9.86 2.239 7.653 0 4.93 0z"/></symbol><symbol viewBox="0 0 50 33" id="fs_logo" xmlns="http://www.w3.org/2000/svg"><path d="M49.207 0c.438 0 .793.358.793.8v8.4c0 .442-.355.8-.793.8h-9.921a.398.398 0 01-.397-.4v-4H22.222v2.8H31.4c.39.021.703.326.743.714v4.179c0 .37-.384.707-.674.707H7.143V5.6H.397A.399.399 0 010 5.2V.8C0 .358.355 0 .794 0h48.413zm-6.61 18.57c1.583.342 7.313 1.509 7.313 5.895 0 6.636-11.934 7.562-16.079 7.562h-7.847c-3.16 0-6.51-.945-8.59-1.87l-.1 1.723a.393.393 0 01-.392.384H7.034a.394.394 0 01-.394-.394v-5.905c0-.218.176-.394.394-.394h10.268a.39.39 0 01.35.223c.005.017.013.034.019.05.618 1.841 5.129 1.927 5.444 1.927h10.298c.462 0 2.218.02 2.218-1.277 0-1.298-1.756-1.272-2.218-1.272l-8.21-.06c-2.23 0-8.924-.697-11.594-1.446C9.14 22.436 6.992 19.932 6.992 18c0-.25.051-.772.1-1l14.974.008c.323.505 2.734.637 3.454.637l6.482.053c2.696 0 8.959.519 10.595.872z"/></symbol><symbol viewBox="0 0 18 18" id="instagram" xmlns="http://www.w3.org/2000/svg"><path d="M12.96 0H4.94A4.946 4.946 0 000 4.94v8.02a4.945 4.945 0 004.94 4.94h8.02a4.946 4.946 0 004.94-4.94V4.94A4.946 4.946 0 0012.96 0zm3.353 12.96a3.356 3.356 0 01-3.352 3.352H4.94a3.355 3.355 0 01-3.352-3.351V4.94A3.355 3.355 0 014.94 1.588h8.02a3.356 3.356 0 013.352 3.352v8.02z"/><path d="M8.95 4.338a4.618 4.618 0 00-4.612 4.613 4.618 4.618 0 004.612 4.612 4.618 4.618 0 004.613-4.612A4.618 4.618 0 008.95 4.338zm0 7.637A3.028 3.028 0 015.926 8.95 3.028 3.028 0 018.95 5.926a3.028 3.028 0 013.025 3.024 3.028 3.028 0 01-3.025 3.025zM13.756 2.991a1.17 1.17 0 00-1.164 1.165c0 .306.125.607.342.824.216.216.516.34.822.34.307 0 .607-.124.824-.34a1.17 1.17 0 000-1.648 1.17 1.17 0 00-.824-.34z"/></symbol><symbol viewBox="0 0 18 18" id="linkedin" xmlns="http://www.w3.org/2000/svg"><path d="M14.886 9.16a3.107 3.107 0 00-.627-1.104 2.46 2.46 0 00-.942-.647 3.276 3.276 0 00-1.19-.209c-.342 0-.64.041-.894.124a2.35 2.35 0 00-.656.323c-.184.133-.34.276-.466.428a6.378 6.378 0 00-.324.419V7.39H7.2c.013.216.019.634.019 1.256v2.36L7.2 15.21h2.587v-4.376c0-.114.007-.225.02-.333.012-.108.038-.206.076-.295a2.09 2.09 0 01.466-.647c.209-.203.498-.304.865-.304.47 0 .806.162 1.009.485.203.323.304.751.304 1.284v4.186h2.588v-4.49c0-.596-.076-1.116-.229-1.56zM5.23 5.902c.267-.266.394-.583.381-.951 0-.38-.13-.7-.39-.961-.26-.26-.612-.39-1.056-.39-.444 0-.8.13-1.065.39-.267.26-.4.58-.4.96 0 .369.127.686.38.952.254.266.603.4 1.047.4h.019c.457 0 .818-.134 1.084-.4zM5.288 7.2H2.7v7.82h2.588V7.2zM17.713.124a.41.41 0 01.133.314V17.56a.41.41 0 01-.133.314.458.458 0 01-.323.124H.457a.458.458 0 01-.324-.124A.41.41 0 010 17.56V.438A.41.41 0 01.133.124.458.458 0 01.457 0H17.39c.126 0 .234.041.323.124z"/></symbol><symbol viewBox="0 0 549 206" id="logo" xmlns="http://www.w3.org/2000/svg"><defs><radialGradient cx="50%" cy="64.859%" fx="50%" fy="64.859%" r="100%" gradientTransform="matrix(0 1 -.36388 0 .736 .149)" id="a"><stop stop-color="#C07700" offset="0%"/><stop stop-color="#E58E00" offset="100%"/></radialGradient><radialGradient cx="50%" cy="97.462%" fx="50%" fy="97.462%" r="100%" gradientTransform="matrix(0 1 -.69336 0 1.176 .475)" id="b"><stop stop-color="#FFF" offset="0%"/><stop stop-color="#FF9E00" offset="100%"/></radialGradient><radialGradient cx="50%" cy="97.56%" fx="50%" fy="97.56%" r="99.902%" gradientTransform="matrix(0 1 -1.66406 0 2.123 .476)" id="c"><stop stop-color="#FFF" offset=".098%"/><stop stop-color="#FF9E00" offset="32.29%"/><stop stop-color="#AB6A00" offset="100%"/></radialGradient></defs><g transform="translate(0 .005)" fill="none" fill-rule="evenodd"><path d="M0 130.995C19.529 43.665 79.529 0 180 0s160.471 43.665 180 130.995H0z" fill="url(#a)"/><path d="M180 97.464c15.593-24.588 47.8-41.469 85-41.469 52.467 0 95 33.579 95 75s-42.533 75-95 75c-37.2 0-69.407-16.88-85-41.469-15.593 24.588-47.8 41.469-85 41.469-52.467 0-95-33.579-95-75s42.533-75 95-75c37.2 0 69.407 16.88 85 41.469z" fill="url(#b)"/><circle fill="url(#c)" cx="179" cy="73.995" r="33"/><text font-family="PermanentMarker-Regular, Permanent Marker" font-size="50" fill="#000"><tspan x="41" y="151.995">Corgi Butt Websites</tspan></text></g></symbol><symbol viewBox="0 0 15 13" id="mail" xmlns="http://www.w3.org/2000/svg"><path d="M15 1.813L7.5 7.438 0 1.813c0-.52.417-.938.938-.938h13.124c.52 0 .938.417.938.938zM0 3.497l7.5 5.625L15 3.497v7.69c0 .52-.417.938-.938.938H.938A.935.935 0 010 11.187v-7.69z"/></symbol><symbol viewBox="0 0 20 20" id="menu" xmlns="http://www.w3.org/2000/svg"><path d="M16.4 9H3.6c-.552 0-.6.447-.6 1s.048 1 .6 1h12.8c.552 0 .6-.447.6-1s-.048-1-.6-1zm0 4H3.6c-.552 0-.6.447-.6 1s.048 1 .6 1h12.8c.552 0 .6-.447.6-1s-.048-1-.6-1zM3.6 7h12.8c.552 0 .6-.447.6-1s-.048-1-.6-1H3.6c-.552 0-.6.447-.6 1s.048 1 .6 1z"/></symbol><symbol viewBox="0 0 7 13" id="pause" xmlns="http://www.w3.org/2000/svg"><path d="M1 0a1 1 0 011 1v11a1 1 0 01-2 0V1a1 1 0 011-1zM6 0a1 1 0 011 1v11a1 1 0 01-2 0V1a1 1 0 011-1z"/></symbol><symbol viewBox="0 0 26 28" id="paw" xmlns="http://www.w3.org/2000/svg"><path d="M12.187 7.375c0 1.75-.906 3.828-2.922 3.828-2.531 0-4.062-3.187-4.062-5.375C5.203 4.078 6.109 2 8.125 2c2.547 0 4.062 3.187 4.062 5.375zm-5.343 7.547c0 1.516-.797 3.094-2.516 3.094-2.5 0-4.328-3.063-4.328-5.328 0-1.516.812-3.109 2.516-3.109 2.5 0 4.328 3.078 4.328 5.344zM13 14.5c3.828 0 9 5.516 9 9.203C22 25.687 20.375 26 18.781 26 16.687 26 15 24.594 13 24.594c-2.094 0-3.875 1.391-6.141 1.391-1.516 0-2.859-.516-2.859-2.281 0-3.703 5.172-9.203 9-9.203zm3.734-3.297c-2.016 0-2.922-2.078-2.922-3.828C13.812 5.187 15.328 2 17.874 2c2.016 0 2.922 2.078 2.922 3.828 0 2.188-1.531 5.375-4.062 5.375zm6.75-1.625c1.703 0 2.516 1.594 2.516 3.109 0 2.266-1.828 5.328-4.328 5.328-1.719 0-2.516-1.578-2.516-3.094 0-2.266 1.828-5.344 4.328-5.344z"/></symbol><symbol viewBox="0 0 14 14" id="phone" xmlns="http://www.w3.org/2000/svg"><path d="M14 1.67c0 .034 0 .068-.014.116-.8 6.363-5.85 11.4-12.2 12.2-.048.014-.082.014-.117.014-.034 0-.082 0-.109-.014a.347.347 0 01-.164-.164l-1.38-3.465a.316.316 0 01.15-.376l3.82-1.914c.117-.061.247-.027.342.055l1.86 1.88A11.76 11.76 0 009.98 6.186L8.12 4.328c-.081-.095-.115-.225-.054-.341L9.981.166a.316.316 0 01.376-.15l3.465 1.38c.062.034.13.096.144.164.02.027.034.075.034.11z"/></symbol><symbol viewBox="0 0 11 16" id="place" xmlns="http://www.w3.org/2000/svg"><path d="M10.74 3.975c-.057-.213-.172-.44-.258-.639C9.46.88 7.228 0 5.426 0 3.012 0 .355 1.618 0 4.954v.682c0 .028.01.284.024.411.199 1.59 1.453 3.28 2.39 4.87 1.007 1.703 2.053 3.378 3.089 5.053.639-1.093 1.275-2.2 1.9-3.265.17-.312.367-.625.537-.923.114-.198.33-.397.43-.582C9.378 9.355 11 7.495 11 5.664v-.752c0-.199-.246-.894-.26-.937zM5.47 7.396c-.71 0-1.486-.355-1.87-1.334-.056-.156-.052-.469-.052-.498v-.44c0-1.248 1.06-1.816 1.983-1.816 1.135 0 2.014.908 2.014 2.044 0 1.136-.94 2.044-2.075 2.044z"/></symbol><symbol viewBox="0 0 21 20" id="play" xmlns="http://www.w3.org/2000/svg"><path d="M.988 19.836V.035l19.49 9.9z" fill-rule="evenodd"/></symbol><symbol viewBox="0 0 20 20" id="search" xmlns="http://www.w3.org/2000/svg"><path d="M17.545 15.467l-3.779-3.779a6.15 6.15 0 00.898-3.21c0-3.417-2.961-6.377-6.378-6.377S2.1 4.87 2.1 8.287c0 3.416 2.961 6.377 6.377 6.377a6.15 6.15 0 003.115-.844l3.799 3.801a.953.953 0 001.346 0l.943-.943c.371-.371.236-.84-.135-1.211zM4.004 8.287c0-2.366 1.917-4.283 4.282-4.283s4.474 2.107 4.474 4.474c0 2.365-1.918 4.283-4.283 4.283s-4.473-2.109-4.473-4.474z"/></symbol><symbol viewBox="0 0 18 15" id="twitter" xmlns="http://www.w3.org/2000/svg"><path d="M18 1.73a7.374 7.374 0 01-2.12.581A3.708 3.708 0 0017.503.27a7.444 7.444 0 01-2.347.896 3.693 3.693 0 00-6.292 3.367A10.483 10.483 0 011.254.675a3.664 3.664 0 00-.5 1.856 3.69 3.69 0 001.643 3.073A3.693 3.693 0 01.724 5.14v.046a3.696 3.696 0 002.962 3.621 3.74 3.74 0 01-.973.13c-.238 0-.47-.024-.695-.07a3.694 3.694 0 003.448 2.565A7.408 7.408 0 01.881 13.01c-.298 0-.592-.018-.881-.05a10.438 10.438 0 005.66 1.661c6.793 0 10.505-5.626 10.505-10.505l-.012-.478A7.374 7.374 0 0018 1.73z"/></symbol><symbol viewBox="0 0 19 18" id="vimeo" xmlns="http://www.w3.org/2000/svg"><path d="M.986 0h18v18h-18V0zm1.96 6.204l.697.888s.87-.679 1.183-.679c.195 0 .61.226.87 1.01.262.783 1.361 4.843 1.428 5.03.3.84.696 2.401 1.914 2.628 1.219.226 2.768-1.01 3.62-1.915.853-.905 4.213-4.769 4.352-7.084.129-2.14-.574-2.637-.888-2.836-.574-.366-1.531-.488-2.437-.175-.905.314-2.28 1.34-2.645 3.168 0 0 1.236-.452 1.688-.017.453.435.331 1.392-.052 2.106-.383.713-1.462 2.367-1.862 2.419-.4.052-.714-.731-.766-.94-.052-.209-.714-3.08-.957-4.751-.244-1.671-1.306-1.95-1.81-1.95-.505 0-1.375.383-4.334 3.098z"/></symbol><symbol viewBox="0 0 21 15" id="youtube" xmlns="http://www.w3.org/2000/svg"><path d="M19.945 2.112c-.538-.956-1.12-1.131-2.307-1.198C16.452.834 13.47.8 10.888.8c-2.587 0-5.57.033-6.754.113-1.184.068-1.768.242-2.31 1.199-.553.954-.838 2.597-.838 5.49v.01c0 2.881.285 4.537.838 5.481.542.956 1.125 1.129 2.309 1.21 1.186.069 4.168.11 6.756.11 2.582 0 5.563-.041 6.75-.11 1.187-.08 1.77-.253 2.307-1.208.558-.945.84-2.6.84-5.481v-.007-.003c0-2.895-.282-4.538-.841-5.492zM8.41 11.319V3.894L14.6 7.606 8.41 11.32z"/></symbol></svg>