<svg width="349" height="555" viewBox="0 0 349 555" fill="none" xmlns="http://www.w3.org/2000/svg">
<path fill-rule="evenodd" clip-rule="evenodd" d="M29.7808 118.035C18.08 98.4957 12.4336 85.0877 12.8418 77.8108C13.4541 66.8956 -13.5434 19.4036 8.99337 2.71582C24.0179 -8.40937 47.818 14.6457 80.3938 71.8809C114.194 67.9801 136.702 68.9859 147.917 74.8984C147.917 74.8984 210.92 8.14722 228.472 13.5786C246.023 19.01 226.547 94.2625 202.174 114.046C202.174 114.046 201.941 120.213 194.856 125.854C190.133 129.615 191.581 140.101 199.2 157.314C204.603 169.104 207.315 180.736 207.334 192.211C207.334 192.211 220.337 208.479 249.026 191.372C277.714 174.264 277.073 175.104 287.102 175.812C297.131 176.521 308.21 191.687 307.423 203.258C307.423 203.258 357.604 242.548 347.4 338.345C347.4 338.345 344.922 351.123 346.204 361.881C347.487 372.639 348.741 390.193 332.822 413.23C332.822 413.23 328.916 437.687 333.551 450.124C338.187 462.562 339.062 463.926 335.971 466.838C333.911 468.78 331.102 468.378 327.545 465.631C324.319 469.637 321.588 469.095 319.353 464.005C319.353 464.005 312.997 470.512 309.236 462.929C309.236 462.929 295.912 469.961 297.137 458.153C297.137 458.153 302.939 446.556 300.14 430.55C297.341 414.545 295.358 409.586 298.507 398.041C298.507 398.041 258.506 446.189 250.664 450.282C250.664 450.282 246.32 455.11 247.282 462.194C248.244 469.279 248.798 474.71 236.524 489.823C236.524 489.823 233.871 504.438 230.343 508.925C230.343 508.925 233.725 517.689 232.996 522.097C232.996 522.097 244.395 535.4 238.36 541.671C234.337 545.852 230.848 546.385 227.894 543.272C223.793 549.027 218.603 550.531 212.325 547.785C212.325 547.785 198.389 552.901 194.949 543.403C194.949 543.403 186.406 549.28 186.144 539.021C185.969 532.181 186.98 525.368 189.176 518.581C187.99 506.109 188.515 496.847 190.75 490.794C192.986 484.742 192.83 476.765 190.284 466.865C183.267 484.375 167.232 487.961 142.178 477.623C142.178 477.623 143.228 493.366 149.234 504.989C153.238 512.739 153.568 522.018 150.225 532.829C149.448 534.788 147.922 536.992 145.648 539.441C143.374 541.89 142.266 544.164 142.324 546.263C141.292 552.735 136.899 554.196 129.144 550.645C129.144 550.645 121.128 558.201 116.435 548.178C116.435 548.178 111.245 555.919 105.268 546.473C105.268 546.473 90.166 550.067 94.685 535.531C94.685 535.531 105.968 524.406 106.434 518.896C106.901 513.386 104.773 489.561 105.968 483.736C107.163 477.911 105.21 471.509 99.8454 464.372C99.8454 464.372 48.8215 353.353 51.1539 336.928C51.1539 336.928 27.6842 314.73 27.9758 294.894C28.2673 275.057 25.9932 256.211 35.9934 244.799C35.9934 244.799 20.2789 208.826 23.136 192.899C25.0408 182.281 29.2877 168.095 35.8767 150.34C39.1615 144.563 40.1625 140.371 38.8797 137.765C37.5969 135.159 34.5639 128.582 29.7808 118.035Z" fill="url(#paint0_linear)"/>
<path fill-rule="evenodd" clip-rule="evenodd" d="M152.884 70.7649C192.289 31.4419 216.779 13.1506 226.355 15.8911C235.93 18.6316 236.74 34.3048 228.784 62.9108C218.949 94.2106 209.769 111.855 201.243 115.843C201.243 115.843 198.21 126.111 192.826 129.189C192.826 129.189 177.666 116.927 170.241 97.161C165.291 83.9833 159.506 75.1846 152.884 70.7649Z" fill="url(#paint1_linear)"/>
<path fill-rule="evenodd" clip-rule="evenodd" d="M38.1613 134.826C33.4878 127.752 31.1199 122.84 31.0576 120.087C31.0576 120.087 15.2007 93.2135 15.2304 83.0323C15.2304 83.0323 -9.94376 21.1816 9.88142 5.12879C23.0982 -5.57312 46.2817 15.833 79.4318 69.3473C70.4793 68.0125 64.6702 71.3624 62.0045 79.397C58.0061 91.4489 44.9638 102.861 44.6719 114.216C44.4773 121.787 42.3072 128.656 38.1613 134.826Z" fill="url(#paint2_linear)"/>
<path fill-rule="evenodd" clip-rule="evenodd" d="M248.21 193.848C268.331 180.227 282.336 175.229 290.227 178.854C302.063 184.29 305.912 192.714 307.762 204.275C298.224 208.777 280.49 192.984 265.164 193.639C254.948 194.075 249.296 194.145 248.21 193.848Z" fill="url(#paint3_linear)"/>
<path fill-rule="evenodd" clip-rule="evenodd" d="M155.452 274.305C192.511 244.44 210.639 222.475 209.835 208.411C209.032 194.347 206.861 186.173 203.324 183.887L147.133 247.245L136.792 256.078L139.708 271.821C139.552 272.253 144.8 273.081 155.452 274.305Z" fill="url(#paint4_linear)"/>
<path fill-rule="evenodd" clip-rule="evenodd" d="M126.799 491C117.437 498.856 110.799 507.399 106.884 516.63C102.97 525.86 99.1227 531.679 95.3436 534.085C93.2277 536.704 92.8911 539.764 94.334 543.264C95.7769 546.765 99.509 548.276 105.53 547.798C108.288 553.308 112.072 554.06 116.882 550.054C116.882 550.054 121.816 557.971 130.403 553.1C130.403 553.1 140.056 556.7 142.957 549.705C142.957 549.705 142.168 547.316 144.953 542.823C147.739 538.331 151.521 535.747 152.237 529.255C152.952 522.763 154.205 514.08 151.194 507.598C149.187 503.277 141.055 497.744 126.799 491Z" fill="white"/>
<path fill-rule="evenodd" clip-rule="evenodd" d="M214.006 485.417C196.387 488.939 187.624 494.833 187.718 503.099C187.812 511.365 188.033 517.052 188.383 520.161C185.2 532.626 184.263 540.539 185.572 543.899C186.882 547.259 189.773 547.816 194.245 545.57C196.649 550.716 202.645 552.204 212.234 550.036C212.234 550.036 223.132 553.055 228.279 545.741C228.279 545.741 238.18 549.263 241 540.539C241 540.539 241.06 532.327 234.07 523.405C234.07 523.405 233.254 515.507 231.139 509.721C231.139 509.721 237.878 496.711 237.404 490.125C237.089 485.734 229.289 484.165 214.006 485.417Z" fill="white"/>
<path fill-rule="evenodd" clip-rule="evenodd" d="M315.925 427.421C305.815 431.345 300.582 435.749 300.226 440.633C299.869 445.517 298.522 451.76 296.185 459.362C295.034 466.028 299.252 467.84 308.841 464.798C308.841 464.798 313.2 470.032 319.523 465.902C319.523 465.902 323.677 471.859 328.355 467.252C328.355 467.252 337.577 471.992 338.903 464.993C338.903 464.993 339.952 461.48 335.14 452.442C335.14 452.442 331.645 441.065 332.478 431.11C333.033 424.473 327.515 423.243 315.925 427.421Z" fill="white"/>
<path fill-rule="evenodd" clip-rule="evenodd" d="M60.7497 255C50.8979 382.124 77.5371 456.427 140.667 477.907C146.522 481.903 175.337 496.875 189.623 469.954C191.959 460.43 191.714 455.568 178.944 438.749C178.944 438.749 220.461 364.624 202.122 341.64C183.784 318.655 158.477 340.223 151.538 340.485C146.912 340.66 144.24 333.497 143.521 318.996C145.697 276.717 144.832 253.627 140.926 249.726C137.019 245.825 115.969 246.245 77.7762 250.985L60.7497 255Z" fill="white"/>
<path fill-rule="evenodd" clip-rule="evenodd" d="M37.8101 313.667C43.6788 300.318 52.5568 291.604 64.4441 287.523C82.2748 281.402 127.942 277.683 139.539 269.822C147.27 264.581 153.398 265.43 157.925 272.368C160.75 280.674 159.152 286.272 153.131 289.162C144.101 293.497 129.435 298.53 110.408 298.029C91.3819 297.528 61.7337 300.539 45.3113 315.006C42.0931 315.994 39.5927 315.547 37.8101 313.667Z" fill="url(#paint5_linear)"/>
<path fill-rule="evenodd" clip-rule="evenodd" d="M85.3351 283.487C84.3067 296.998 86.9579 303.962 93.2888 304.38C93.2888 304.38 99.7994 302.271 101.225 299.309C102.176 297.334 99.4663 297.158 93.0969 298.779C89.5603 292.319 88.4284 286.857 89.7013 282.393C86.9993 281.778 85.5439 282.142 85.3351 283.487Z" fill="url(#paint6_linear)"/>
<path fill-rule="evenodd" clip-rule="evenodd" d="M107.547 278.851C108.284 291.757 110.136 298.769 113.103 299.888C116.071 301.006 120.92 300.028 127.65 296.955C122.985 297.662 120.517 297.857 120.246 297.538C119.839 297.06 111.924 282.777 113.359 277.228C113.335 277.641 111.398 278.182 107.547 278.851Z" fill="url(#paint7_linear)"/>
<path fill-rule="evenodd" clip-rule="evenodd" d="M102.266 214.339C89.277 215.186 81.5644 213.967 79.1288 210.683C76.6932 207.398 75.0572 203.144 74.2207 197.92C74.4194 188.043 77.1115 179.349 82.297 171.838C90.0752 160.57 97.3044 155.411 98.7528 142.572C100.201 129.734 103.255 92.8524 109.44 91.0151C109.44 91.0151 112.869 108.094 108.083 125.569C104.893 137.219 108.678 151.994 119.437 169.896C130.25 179.535 135.954 188.074 136.548 195.51C137.439 206.666 135.304 211.28 128.897 213.738C124.625 215.377 115.749 215.577 102.266 214.339Z" fill="white"/>
<path fill-rule="evenodd" clip-rule="evenodd" d="M84.4253 222.504C79.1049 234.962 60.2965 235.523 28 224.186C28 224.186 43.2637 284.801 95.9311 282.959C131.042 281.731 154.732 266.184 167 236.32C148.44 239.154 136.897 234.159 132.374 221.335C127.849 208.51 111.866 208.9 84.4253 222.504Z" fill="white"/>
<path fill-rule="evenodd" clip-rule="evenodd" d="M131.947 211.347C140.881 201.889 147.046 194.534 150.441 189.28C150.441 189.28 150.547 221.291 127.583 224.239C127.583 224.239 95.26 254.579 80.8478 224.685C80.8478 224.685 66.727 220.539 65.3179 195.472C65.3179 195.472 72.0624 211.863 83.9868 212.764C91.9363 213.364 107.923 212.892 131.947 211.347Z" fill="black"/>
<path d="M84.667 213.806C85.4286 224.833 87.1895 230.994 91.1154 232.492C95.0413 233.989 99.6348 234.401 101.687 233.564C105.754 234.708 109.316 234.195 111.382 232.976C114.481 231.148 117.025 228.192 118.261 224.925C119.37 222.15 120.706 217.318 119.545 215.028C118.383 212.739 118.383 212.739 84.667 213.806Z" fill="url(#paint8_linear)"/>
<path fill-rule="evenodd" clip-rule="evenodd" d="M132.621 142.883C141.459 127.742 149.22 125.938 155.901 137.472C155.901 137.472 156.635 147.543 148.443 150.454C142.982 152.395 137.708 149.872 132.621 142.883Z" fill="black"/>
<path fill-rule="evenodd" clip-rule="evenodd" d="M84.7744 195.139C85.8022 186.287 88.1019 181.652 93.1512 180.813C99.0536 179.702 98.5628 182.662 102.748 182.19C106.934 181.719 108.821 180.052 112.578 180.463C117.268 181.39 120.6 186.886 120.012 195.199C119.425 203.513 114.091 208.325 110.251 208.681C106.412 209.036 102.902 207.419 97.4466 208.672C92.3215 210.827 85.0226 205.002 84.7744 195.139Z" fill="url(#paint9_linear)"/>
<path d="M145.711 149.609C150.548 149.183 154.13 144.975 153.71 140.209C153.29 135.443 149.029 131.925 144.191 132.351C139.353 132.777 135.772 136.986 136.192 141.752C136.611 146.517 140.873 150.035 145.711 149.609Z" fill="url(#paint10_radial)"/>
<path d="M144.709 143.071C146.476 142.915 147.795 141.493 147.654 139.894C147.513 138.296 145.966 137.126 144.199 137.282C142.432 137.437 141.114 138.859 141.255 140.458C141.396 142.057 142.942 143.226 144.709 143.071Z" fill="url(#paint11_radial)"/>
<path d="M92.1923 200.675C95.1463 200.675 97.5409 199.063 97.5409 197.075C97.5409 195.087 95.1463 193.475 92.1923 193.475C89.2384 193.475 86.8438 195.087 86.8438 197.075C86.8438 199.063 89.2384 200.675 92.1923 200.675Z" fill="url(#paint12_radial)"/>
<path d="M111.86 200.802C114.814 200.802 117.208 199.19 117.208 197.202C117.208 195.214 114.814 193.602 111.86 193.602C108.906 193.602 106.511 195.214 106.511 197.202C106.511 199.19 108.906 200.802 111.86 200.802Z" fill="url(#paint13_radial)"/>
<path fill-rule="evenodd" clip-rule="evenodd" d="M138.488 131.822C140.252 128.892 143.086 127.722 146.991 128.312C152.849 129.197 144.796 125.357 142.446 126.484C140.096 127.612 140.096 127.612 138.488 131.822Z" fill="url(#paint14_linear)"/>
<path fill-rule="evenodd" clip-rule="evenodd" d="M84.7724 140.381C77.9159 125.721 70.9333 123.413 63.8248 133.456C63.8248 133.456 62.3071 142.653 69.5936 146.015C74.4511 148.257 79.5108 146.379 84.7724 140.381Z" fill="black"/>
<path d="M72.176 145.468C67.7646 144.671 64.8249 140.502 65.6099 136.156C66.3949 131.81 70.6074 128.933 75.0188 129.73C79.4302 130.527 82.37 134.696 81.585 139.042C80.8 143.387 76.5874 146.264 72.176 145.468Z" fill="url(#paint15_radial)"/>
<path d="M74.6704 136.563C74.4817 138.19 73.1358 139.37 71.6644 139.199C70.1929 139.028 69.153 137.572 69.3417 135.945C69.5304 134.319 70.8762 133.138 72.3477 133.309C73.8191 133.48 74.859 134.937 74.6704 136.563Z" fill="url(#paint16_radial)"/>
<path fill-rule="evenodd" clip-rule="evenodd" d="M80.3059 129.721C78.9296 126.88 76.4219 125.567 72.7829 125.782C67.3242 126.105 75.0481 123.25 77.1144 124.483C79.1807 125.716 79.1807 125.716 80.3059 129.721Z" fill="url(#paint17_linear)"/>
<path d="M52.37 113.263C47.8419 113.55 42.3453 114.45 34.1317 116.25C32.8865 116.525 29.9684 117.113 27.654 117.575C25.3396 118.038 23.3774 118.425 23.302 118.45C23.1133 118.488 22.9372 122.688 23.0378 124.313C23.2013 126.813 23.6038 127.725 25.4151 129.788C28.4967 133.3 28.9999 134.138 29.7168 137.062C31.3268 143.575 33.8802 150.962 36.5719 156.862C38.2448 160.55 40.4837 162.8 44.5716 164.887C51.5399 168.462 60.6464 169.637 70.4196 168.25C76.3942 167.387 81.2494 164.9 85.5763 160.487C88.6579 157.337 91.1107 153.762 93.7521 148.562C95.0979 145.925 95.5004 144.85 96.5192 141.062C97.3494 138 97.7771 136.737 98.5443 135.187C99.626 132.95 100.28 132.488 102.431 132.4C103.123 132.375 104.456 132.413 105.387 132.475C107.412 132.613 107.789 132.763 108.795 133.838C110.116 135.262 110.946 136.975 112.053 140.625C114.783 149.612 118.141 155.737 122.757 160.187C124.946 162.287 126.656 163.5 129.273 164.8C134.379 167.35 140.014 168.625 146.203 168.625C157.649 168.625 167.07 163.912 171.875 155.787C173.585 152.912 174.491 150.362 176.327 143.25C178.478 134.925 179.019 133.325 180.352 131.375C180.918 130.55 181.937 129.588 182.83 129.025C183.937 128.325 183.937 128.338 183.912 123.75C183.912 122.688 183.912 121.388 183.925 120.875C183.95 119.15 183.371 118.663 180.692 118.175C178.541 117.775 177.044 117.425 173.497 116.45C169.384 115.313 168.73 115.163 165.271 114.625C156.68 113.275 154.416 113.063 149.8 113.163C143.662 113.3 139.411 113.9 126.833 116.375C118.342 118.05 114.82 118.638 110.758 119.063C107.638 119.388 103.789 119.513 101.035 119.375C96.1042 119.138 93.7017 118.775 86.2052 117.125C79.2872 115.6 77.891 115.338 73.2371 114.688C63.3507 113.325 57.6528 112.938 52.37 113.263Z" fill="black"/>
<g filter="url(#filter0_ii)">
<ellipse cx="59.9484" cy="140.63" rx="23.8765" ry="24.7988" transform="rotate(-40.6697 59.9484 140.63)" fill="black"/>
</g>
<g filter="url(#filter1_ii)">
<ellipse cx="145.271" cy="141.37" rx="23.8765" ry="24.7988" transform="rotate(-40.6697 145.271 141.37)" fill="black"/>
</g>
<path d="M44 117L45.3471 121.146H49.7063L46.1796 123.708L47.5267 127.854L44 125.292L40.4733 127.854L41.8204 123.708L38.2937 121.146H42.6529L44 117Z" fill="white"/>
<defs>
<filter id="filter0_ii" x="25.6772" y="106.261" width="72.5423" height="72.7393" filterUnits="userSpaceOnUse" color-interpolation-filters="sRGB">
<feFlood flood-opacity="0" result="BackgroundImageFix"/>
<feBlend mode="normal" in="SourceGraphic" in2="BackgroundImageFix" result="shape"/>
<feColorMatrix in="SourceAlpha" type="matrix" values="0 0 0 0 0 0 0 0 0 0 0 0 0 0 0 0 0 0 127 0" result="hardAlpha"/>
<feOffset dx="4" dy="4"/>
<feGaussianBlur stdDeviation="2"/>
<feComposite in2="hardAlpha" operator="arithmetic" k2="-1" k3="1"/>
<feColorMatrix type="matrix" values="0 0 0 0 1 0 0 0 0 1 0 0 0 0 1 0 0 0 0.25 0"/>
<feBlend mode="normal" in2="shape" result="effect1_innerShadow"/>
<feColorMatrix in="SourceAlpha" type="matrix" values="0 0 0 0 0 0 0 0 0 0 0 0 0 0 0 0 0 0 127 0" result="hardAlpha"/>
<feOffset dx="1" dy="1"/>
<feComposite in2="hardAlpha" operator="arithmetic" k2="-1" k3="1"/>
<feColorMatrix type="matrix" values="0 0 0 0 1 0 0 0 0 1 0 0 0 0 1 0 0 0 0.25 0"/>
<feBlend mode="normal" in2="effect1_innerShadow" result="effect2_innerShadow"/>
</filter>
<filter id="filter1_ii" x="111" y="107" width="72.5423" height="72.7393" filterUnits="userSpaceOnUse" color-interpolation-filters="sRGB">
<feFlood flood-opacity="0" result="BackgroundImageFix"/>
<feBlend mode="normal" in="SourceGraphic" in2="BackgroundImageFix" result="shape"/>
<feColorMatrix in="SourceAlpha" type="matrix" values="0 0 0 0 0 0 0 0 0 0 0 0 0 0 0 0 0 0 127 0" result="hardAlpha"/>
<feOffset dx="4" dy="4"/>
<feGaussianBlur stdDeviation="2"/>
<feComposite in2="hardAlpha" operator="arithmetic" k2="-1" k3="1"/>
<feColorMatrix type="matrix" values="0 0 0 0 1 0 0 0 0 1 0 0 0 0 1 0 0 0 0.25 0"/>
<feBlend mode="normal" in2="shape" result="effect1_innerShadow"/>
<feColorMatrix in="SourceAlpha" type="matrix" values="0 0 0 0 0 0 0 0 0 0 0 0 0 0 0 0 0 0 127 0" result="hardAlpha"/>
<feOffset dx="1" dy="1"/>
<feComposite in2="hardAlpha" operator="arithmetic" k2="-1" k3="1"/>
<feColorMatrix type="matrix" values="0 0 0 0 1 0 0 0 0 1 0 0 0 0 1 0 0 0 0.25 0"/>
<feBlend mode="normal" in2="effect1_innerShadow" result="effect2_innerShadow"/>
</filter>
<linearGradient id="paint0_linear" x1="220.489" y1="645.191" x2="132.585" y2="390.975" gradientUnits="userSpaceOnUse">
<stop offset="0.29078" stop-color="#CF8000"/>
<stop offset="0.971631" stop-color="#FFB844"/>
</linearGradient>
<linearGradient id="paint1_linear" x1="225.538" y1="19.1742" x2="142.791" y2="78.746" gradientUnits="userSpaceOnUse">
<stop offset="0.29078" stop-color="#CF8000"/>
<stop offset="0.971631" stop-color="#FFB844"/>
</linearGradient>
<linearGradient id="paint2_linear" x1="2.05811" y1="2.58325" x2="88.6111" y2="48.0768" gradientUnits="userSpaceOnUse">
<stop offset="0.29078" stop-color="#CF8000"/>
<stop offset="0.971631" stop-color="#FFB844"/>
</linearGradient>
<linearGradient id="paint3_linear" x1="274.922" y1="212.365" x2="277.173" y2="182.442" gradientUnits="userSpaceOnUse">
<stop offset="0.29078" stop-color="#CF8000"/>
<stop offset="0.971631" stop-color="#FFB844"/>
</linearGradient>
<linearGradient id="paint4_linear" x1="208.533" y1="271.751" x2="167.406" y2="225.898" gradientUnits="userSpaceOnUse">
<stop offset="0.29078" stop-color="#CF8000"/>
<stop offset="0.971631" stop-color="#FFB844"/>
</linearGradient>
<linearGradient id="paint5_linear" x1="47.3556" y1="276.582" x2="62.3026" y2="313.132" gradientUnits="userSpaceOnUse">
<stop stop-color="#513B37"/>
<stop offset="1" stop-color="#2F2629"/>
</linearGradient>
<linearGradient id="paint6_linear" x1="81.1933" y1="295.746" x2="90.9083" y2="293.672" gradientUnits="userSpaceOnUse">
<stop stop-color="#A3A3A3"/>
<stop offset="0.035461" stop-color="#9F9F9F"/>
<stop offset="1"/>
</linearGradient>
<linearGradient id="paint7_linear" x1="106.216" y1="290.085" x2="115.754" y2="288.606" gradientUnits="userSpaceOnUse">
<stop stop-color="#919191"/>
<stop offset="1"/>
</linearGradient>
<linearGradient id="paint8_linear" x1="101.353" y1="211.068" x2="101.461" y2="233.118" gradientUnits="userSpaceOnUse">
<stop stop-color="#100509"/>
<stop offset="1" stop-color="#D25261"/>
</linearGradient>
<linearGradient id="paint9_linear" x1="103.505" y1="177.894" x2="103.506" y2="212.421" gradientUnits="userSpaceOnUse">
<stop stop-color="#3A3A3A"/>
<stop offset="1"/>
</linearGradient>
<radialGradient id="paint10_radial" cx="0" cy="0" r="1" gradientUnits="userSpaceOnUse" gradientTransform="translate(145 141) rotate(-4.89916) scale(9.34292 9.20409)">
<stop offset="0.382979"/>
<stop offset="0.780142" stop-color="#622D11"/>
<stop offset="1" stop-color="#0E080C"/>
</radialGradient>
<radialGradient id="paint11_radial" cx="0" cy="0" r="1" gradientUnits="userSpaceOnUse" gradientTransform="translate(142.492 138.453) rotate(-5.03245) scale(9.0844 8.21855)">
<stop offset="0.0283688" stop-color="white" stop-opacity="0.501961"/>
<stop offset="0.347518" stop-color="white" stop-opacity="0"/>
</radialGradient>
<radialGradient id="paint12_radial" cx="0" cy="0" r="1" gradientUnits="userSpaceOnUse" gradientTransform="translate(92.1499 196.405) scale(12.0765 8.12841)">
<stop/>
<stop offset="1" stop-color="#3A3A3A"/>
</radialGradient>
<radialGradient id="paint13_radial" cx="0" cy="0" r="1" gradientUnits="userSpaceOnUse" gradientTransform="translate(111.817 196.532) scale(12.0765 8.12841)">
<stop/>
<stop offset="1" stop-color="#3A3A3A"/>
</radialGradient>
<linearGradient id="paint14_linear" x1="141.013" y1="126.585" x2="142.028" y2="130.208" gradientUnits="userSpaceOnUse">
<stop offset="0.29078" stop-color="#6E4026"/>
<stop offset="0.971631" stop-color="#3D1C0D"/>
</linearGradient>
<radialGradient id="paint15_radial" cx="0" cy="0" r="1" gradientUnits="userSpaceOnUse" gradientTransform="translate(73.5 137.5) rotate(-21.8014) scale(8.07775 7.95771)">
<stop offset="0.333333"/>
<stop offset="0.780142" stop-color="#622D11"/>
<stop offset="1" stop-color="#0E080C"/>
</radialGradient>
<radialGradient id="paint16_radial" cx="0" cy="0" r="1" gradientUnits="userSpaceOnUse" gradientTransform="translate(70.4656 134.399) rotate(96.6173) scale(8.38565 7.5864)">
<stop offset="0.0283688" stop-color="white" stop-opacity="0.501961"/>
<stop offset="0.347518" stop-color="white" stop-opacity="0"/>
</radialGradient>
<linearGradient id="paint17_linear" x1="78.4235" y1="124.695" x2="77.1869" y2="127.94" gradientUnits="userSpaceOnUse">
<stop offset="0.29078" stop-color="#6E4026"/>
<stop offset="0.971631" stop-color="#3D1C0D"/>
</linearGradient>
</defs>
</svg>
