<svg width="360" height="227" xmlns="http://www.w3.org/2000/svg"><defs><radialGradient cx="50%" cy="64.859%" fx="50%" fy="64.859%" r="100%" gradientTransform="matrix(0 1 -.3715 0 .741 .149)" id="a"><stop stop-color="#C07700" offset="0%"/><stop stop-color="#E58E00" offset="100%"/></radialGradient><radialGradient cx="50%" cy="97.462%" fx="50%" fy="97.462%" r="100%" gradientTransform="matrix(0 1 -.79043 0 1.27 .475)" id="b"><stop stop-color="#FFF" offset="0%"/><stop stop-color="#FF9E00" offset="100%"/></radialGradient><radialGradient cx="50%" cy="97.56%" fx="50%" fy="97.56%" r="99.902%" gradientTransform="matrix(0 1 -1.66406 0 2.123 .476)" id="c"><stop stop-color="#FFF" offset=".098%"/><stop stop-color="#FF9E00" offset="32.29%"/><stop stop-color="#AB6A00" offset="100%"/></radialGradient></defs><g transform="translate(0 .005)" fill="none" fill-rule="evenodd"><path d="M1 133C20.42 44.333 80.087 0 180 0s159.58 44.333 179 133H1z" fill="url(#a)"/><path d="M180 103.27c15.593-28.03 47.8-47.275 85-47.275 52.467 0 95 38.28 95 85.5s-42.533 85.5-95 85.5c-37.2 0-69.407-19.244-85-47.274-15.593 28.03-47.8 47.274-85 47.274-52.467 0-95-38.28-95-85.5s42.533-85.5 95-85.5c37.2 0 69.407 19.244 85 47.274z" fill="url(#b)"/><circle fill="url(#c)" cx="179" cy="73.995" r="33"/></g></svg>